<?xml version="1.0" encoding="utf-8"?>
<!-- Generator: Adobe Illustrator 25.2.3, SVG Export Plug-In . SVG Version: 6.00 Build 0)  -->
<svg version="1.1" id="Layer_1" xmlns="http://www.w3.org/2000/svg" xmlns:xlink="http://www.w3.org/1999/xlink" x="0px" y="0px"
	 viewBox="0 0 216 54" style="enable-background:new 0 0 216 54;" xml:space="preserve">
<style type="text/css">
	.st0{fill:#19557F;}
	.st1{fill:#5B7183;}
</style>
<g>
	<path class="st0" d="M22.7,34c-2.4-2.5-5.1-3.7-8-3.7c-2.5,0-4.7,0.9-6.4,2.6c-1.7,1.7-2.6,3.9-2.6,6.4c0,1.8,0.4,3.4,1.2,4.7
		c0.8,1.4,1.9,2.5,3.3,3.2c1.4,0.8,3,1.2,4.7,1.2c1.5,0,2.8-0.3,4-0.8c1.2-0.5,2.5-1.5,3.9-2.9c0.1,0.1,3.1,3.2,3.2,3.4
		c-1.9,1.8-3.7,3.1-5.4,3.8c-1.7,0.7-3.7,1.1-5.9,1.1c-4,0-7.4-1.3-9.9-3.9c-2.6-2.6-3.9-5.9-3.9-9.9c0-2.6,0.6-4.9,1.8-6.9
		c1.2-2,2.9-3.6,5-4.9c2.2-1.2,4.6-1.8,7.1-1.8c2.1,0,4.2,0.5,6.2,1.4c2,0.9,3.6,2.2,5.1,3.8L22.7,34z"/>
	<path class="st0" d="M33,47L33,47c-1-1.1-1.5-2.5-1.5-4.2c0-1.7,0.5-3.1,1.5-4.1c1-1.1,2.3-1.6,3.9-1.6c1.6,0,2.9,0.5,3.9,1.6
		c1,1.1,1.5,2.5,1.5,4.1c0,1.7-0.5,3.1-1.6,4.2c-1,1.1-2.3,1.6-3.9,1.6C35.4,48.6,34.1,48,33,47 M30.2,35.3c-2.2,2-3.3,4.5-3.3,7.5
		c0,2.8,1,5.2,2.9,7.1c1.9,1.9,4.3,2.9,7,2.9c1.9,0,3.6-0.5,5.1-1.3c1.5-0.9,2.8-2.1,3.7-3.7c0.9-1.6,1.3-3.3,1.3-5.1
		c0-1.8-0.4-3.5-1.3-5c-0.9-1.5-2.1-2.8-3.7-3.7c-1.6-0.9-3.3-1.4-5.1-1.4C34.4,32.7,32.1,33.6,30.2,35.3"/>
	<rect x="49.9" y="26.2" class="st0" width="4.6" height="26.2"/>
	<path class="st0" d="M63.6,47L63.6,47c-1-1.1-1.5-2.5-1.5-4.2c0-1.7,0.5-3.1,1.5-4.1c1-1.1,2.3-1.6,3.9-1.6c1.6,0,2.9,0.5,3.9,1.6
		c1,1.1,1.5,2.5,1.5,4.1c0,1.7-0.5,3.1-1.6,4.2c-1,1.1-2.3,1.6-3.9,1.6C65.9,48.6,64.6,48,63.6,47 M60.8,35.3
		c-2.2,2-3.3,4.5-3.3,7.5c0,2.8,1,5.2,2.9,7.1c1.9,1.9,4.3,2.9,7,2.9c1.9,0,3.6-0.5,5.1-1.3c1.5-0.9,2.8-2.1,3.7-3.7
		c0.9-1.6,1.3-3.3,1.3-5.1c0-1.8-0.4-3.5-1.3-5c-0.9-1.5-2.1-2.8-3.7-3.7c-1.6-0.9-3.3-1.4-5.1-1.4C64.9,32.7,62.7,33.6,60.8,35.3"
		/>
	<path class="st0" d="M88.6,33.2L88.6,33.2c-0.9,0.3-1.9,1-3,1.9l-0.2,0.2v-2.1h-4.7v19.2h4.7v-7.7c0-2.1,0.1-3.3,0.2-4
		c0.3-1.2,0.8-2.1,1.5-2.8c0.7-0.7,1.6-1,2.6-1c0.8,0,1.4,0.2,2,0.6c0.5,0.4,0.9,1,1.1,1.8c0.2,0.8,0.3,2.3,0.3,4.7v8.4h4.6V39.6
		c0-2.2-0.6-3.9-1.7-5c-1.3-1.3-2.9-2-4.8-2C90.4,32.7,89.5,32.9,88.6,33.2"/>
	<rect x="102.2" y="33.2" class="st0" width="4.6" height="19.2"/>
	<path class="st0" d="M115.2,42.8c0-1.7,0.5-3.1,1.5-4.2c1-1.1,2.3-1.6,3.8-1.6c1.6,0,2.9,0.5,3.9,1.6c1,1.1,1.5,2.5,1.5,4.2
		c0,1.7-0.5,3.2-1.5,4.3c-1,1.1-2.3,1.6-3.9,1.6c-1.5,0-2.8-0.6-3.8-1.7C115.8,45.9,115.2,44.5,115.2,42.8 M113.2,35.5L113.2,35.5
		c-1.7,1.9-2.6,4.3-2.6,7.3c0,2.8,0.9,5.2,2.7,7.2c1.8,1.9,4,2.9,6.4,2.9c1.1,0,2.1-0.2,3.1-0.6c0.9-0.4,1.9-1,2.8-1.9l0.2-0.2v2.2
		h4.6V33.2h-4.6v2.3l-0.2-0.2c-0.9-0.9-1.8-1.5-2.8-2c-1-0.4-2.1-0.6-3.2-0.6C117.1,32.7,115,33.6,113.2,35.5"/>
	<rect x="135.1" y="25.7" class="st0" width="4.6" height="26.7"/>
	<polygon class="st0" points="152.5,25.7 152.5,52.4 164.6,52.4 164.6,47.8 157.3,47.8 157.3,25.7 	"/>
	<path class="st0" d="M180.7,26.1c-0.7,0.6-1.2,1.4-1.3,2.5c-0.1,0.5-0.1,2-0.1,4.5v0.1h-1.7v3.9h1.7v15.3h4.7V37.1h3.1v-3.9h-3.1
		l0-2.5c0-0.6,0.1-1,0.3-1.2c0.3-0.3,0.7-0.4,1.3-0.4c0.4,0,1,0.1,1.6,0.3v-3.5c-1.2-0.4-2.3-0.7-3.3-0.7
		C182.5,25.2,181.4,25.5,180.7,26.1"/>
	<path class="st0" d="M198.3,36.6c1.3,0,2.4,0.3,3.4,1c1,0.7,1.6,1.6,1.9,2.7l0,0.2h-10.9l0.1-0.2c0.6-1.2,1.2-2.1,1.8-2.6
		C195.7,37,197,36.6,198.3,36.6 M191,35.6c-1.9,1.9-2.8,4.4-2.8,7.3c0,2.8,1,5.2,2.8,7.1c1.9,1.9,4.4,2.8,7.4,2.8c1.9,0,3.6-0.4,5-1
		c1.4-0.7,2.6-1.7,3.5-3.1c-0.3-0.1-3.8-1.8-3.9-1.8c-1.3,1.3-2.9,1.9-4.7,1.9c-1.5,0-2.8-0.4-3.8-1.3c-1-0.8-1.6-2-1.8-3.4l0-0.1
		h15.7c0-0.2,0-0.8,0-0.8c0-3.2-1-5.7-2.8-7.7c-1.9-1.9-4.4-2.9-7.4-2.9C195.3,32.7,192.9,33.7,191,35.6"/>
	<g>
		<path class="st1" d="M167.7,19.7c0,2.5,1.5,4.5,3.2,4.5c1.8,0,3.2-2,3.2-4.5c0-2.5-1.4-4.5-3.2-4.5
			C169.2,15.2,167.7,17.2,167.7,19.7"/>
		<path class="st1" d="M143.6,12.8c0,4.1,1.2,7.6,2.5,7.6c1.4,0,2.5-3.5,2.5-7.6c0-4.1-1.2-7.6-2.5-7.6
			C144.7,5.2,143.6,8.6,143.6,12.8"/>
		<path class="st1" d="M100.8,21.4c0,2.2,1.8,4,4,4c2.2,0,4-1.8,4-4c0-2.2-1.8-4-4-4C102.6,17.3,100.8,19.1,100.8,21.4"/>
		<path class="st1" d="M119.9,21.2c1.9,0,3.5-2.3,3.5-5.2c0-2.8-1.6-5.2-3.5-5.2c-1.9,0-3.5,2.3-3.5,5.2
			C116.3,18.9,117.9,21.2,119.9,21.2"/>
		<path class="st1" d="M155.9,5.9c0,3.2,1.4,5.7,3,5.7c1.7,0,3-2.6,3-5.7c0-3.2-1.3-5.7-2.9-5.7C157.3,0.2,155.9,2.7,155.9,5.9"/>
		<path class="st1" d="M130.7,8.7c0,3.4,1.2,6.1,2.6,6.1c1.5,0,2.6-2.7,2.6-6.1c0-3.4-1.2-6.1-2.6-6.1
			C131.9,2.6,130.7,5.4,130.7,8.7"/>
	</g>
	<rect x="168.6" y="33.2" class="st0" width="4.7" height="19.2"/>
	<g>
		<path class="st0" d="M214.9,49.7c0,1.8-1.4,3.2-3.2,3.2c-1.8,0-3.2-1.4-3.2-3.2c0-1.8,1.4-3.1,3.2-3.1
			C213.5,46.6,214.9,48,214.9,49.7z M209.2,49.7c0,1.5,1.1,2.6,2.5,2.6c1.4,0,2.5-1.1,2.5-2.6s-1.1-2.6-2.5-2.6
			C210.2,47.1,209.2,48.3,209.2,49.7z M211.1,51.5h-0.6v-3.3c0.3-0.1,0.7-0.1,1.1-0.1c0.5,0,0.8,0.1,1,0.3c0.2,0.1,0.3,0.4,0.3,0.7
			c0,0.4-0.3,0.6-0.6,0.8v0c0.3,0.1,0.4,0.4,0.5,0.8c0.1,0.5,0.2,0.7,0.3,0.8h-0.6c-0.1-0.1-0.2-0.4-0.3-0.8
			c-0.1-0.4-0.3-0.5-0.7-0.5h-0.4V51.5z M211.1,49.6h0.4c0.4,0,0.8-0.1,0.8-0.5c0-0.3-0.2-0.5-0.8-0.5c-0.2,0-0.4,0-0.5,0V49.6z"/>
	</g>
</g>
</svg>
